<svg xmlns="http://www.w3.org/2000/svg" viewBox="0 0 1066 879" role="img" aria-labelledby="title desc">
  <title id="title">VHOX bat exterior outline</title>
  <desc id="desc">Exterior silhouette traced from the approved VHOX source logo, without letters or background.</desc>
  <path id="vhox-bat-outline" pathLength="1" fill="none" stroke="#7cff00" stroke-width="2" stroke-linecap="round" stroke-linejoin="round" d="M938 440 L999 536 L1022 586 L1031 620 L900 574 L900 622 L907 664 L934 767 L961 854 L793 693 L785 705 L773 742 L704 657 L692 668 L676 690 L639 627 L636 633 L634 661 L627 648 L606 668 L578 710 L563 741 L544 800 L531 876 L518 808 L503 760 L473 701 L444 663 L435 655 L421 681 L406 650 L367 714 L405 649 L366 709 L357 671 L285 762 L274 718 L250 738 L248 713 L100 853 L133 751 L156 667 L165 616 L164 574 L29 621 L29 619 L46 571 L64 536 L112 461 L132 424 L148 389 L154 366 L138 325 L2 283 L75 217 L98 193 L119 164 L133 130 L135 94 L125 60 L120 51 L68 2 L99 13 L130 29 L176 63 L350 244 L377 223 L441 311 L446 300 L448 277 L401 186 L444 206 L463 220 L479 236 L492 254 L503 278 L512 314 L515 310 L517 313 L519 307 L520 310 L520 305 L521 308 L523 302 L525 307 L525 301 L526 304 L526 300 L533 292 L535 339 L539 339 L541 342 L543 340 L543 344 L545 340 L545 345 L555 288 L561 270 L580 241 L608 214 L633 198 L659 187 L608 290 L610 305 L623 307 L683 224 L712 245 L878 71 L898 53 L943 24 L979 7 L996 2 L940 56 L931 78 L927 100 L930 132 L943 162 L961 186 L1038 255 L1063 283 L913 330 L887 380 L910 378 L922 409 Z"/>
</svg>
